PathFileType	4	(X/Y/Z)	70_2_64_p1_0-487_filt_butterworth.trc
DataRate	CameraRate	NumFrames	NumMarkers	Units	OrigDataRate	OrigDataStartFrame	OrigNumFrames
50.0	50.0	6	27	m	50.0	365	487
Frame#	Time	RHip			RKnee			RAnkle			RBigToe			RSmallToe			RHeel			LHip			LKnee			LAnkle			LBigToe			LSmallToe			LHeel			Neck			Head			Nose			RShoulder			RElbow			RWrist			RThumb			RIndex			RPinky			LShoulder			LElbow			LWrist			LThumb			LIndex			LPinky			
		X1	Y1	Z1	X2	Y2	Z2	X3	Y3	Z3	X4	Y4	Z4	X5	Y5	Z5	X6	Y6	Z6	X7	Y7	Z7	X8	Y8	Z8	X9	Y9	Z9	X10	Y10	Z10	X11	Y11	Z11	X12	Y12	Z12	X13	Y13	Z13	X14	Y14	Z14	X15	Y15	Z15	X16	Y16	Z16	X17	Y17	Z17	X18	Y18	Z18	X19	Y19	Z19	X20	Y20	Z20	X21	Y21	Z21	X22	Y22	Z22	X23	Y23	Z23	X24	Y24	Z24	X25	Y25	Z25	X26	Y26	Z26	X27	Y27	Z27	
365	7.3	0.3379117349118675	0.46720238058027813	0.12105175018889888	0.3328217501773126	0.5394502325030421	0.519976463874607	0.3527030078719027	0.712750918707457	0.9307776102044446	0.3102321517975816	0.598953724338105	0.9912106241291099	0.3794497157299153	0.5994585105756515	0.9884492447544084	0.3789422156191847	0.8200956289760274	0.9936746044814851	0.09874950254034782	0.5280715444613733	0.07885559259211608	0.12041358523299467	0.6280229664076576	0.5454365416627432	0.16506978918897483	0.8078231824592006	0.9669693933544982	0.16100687561985477	0.6018014101138355	0.9784279612524939	0.10817857995761886	0.6787934645309006	0.988855803120647	0.1854842343672924	0.8462440037917413	1.0169160884360349	0.30196792107345827	0.42640249147442083	-0.43019646234422454	0.3281800358411724	0.32048106263021847	-0.6822218922647947	0.2867174587031438	0.2809284102684768	-0.5186220620983504	0.4473046747670195	0.39568744912197895	-0.31722796401908715	0.39866692697896583	0.3440934498418716	-0.05585663928208319	0.2110503719466408	0.2960992712247998	-0.20298858444247225	0.1713009517937448	0.28463098876446635	-0.3045023475519296	0.1451881365238062	0.2761320143151739	-0.30076528968202726	0.11565466105265668	0.3146227231937757	-0.2314013721072412	0.14654612999534045	0.4597784668664092	-0.4127126748075956	-0.0946974599108653	0.4986933578287387	-0.2979807419552806	0.019927865321232488	0.27561468890342883	-0.3849978767361179	0.10222506276616836	0.22797622621922803	-0.43773919113328585	0.10205545216646975	0.2100020179273702	-0.45232776004124087	0.0787074616566511	0.22381401151423802	-0.41117926258520066
366	7.32	0.3367001854029418	0.4761683611470627	0.12191615909855606	0.3325140266412059	0.5406929542757913	0.5165072158546156	0.35263753159171823	0.7127795277024301	0.9307805172251415	0.31219843045860785	0.6064999114130859	0.9923576075612957	0.37939787993839386	0.5995763294051305	0.988519978507275	0.38031401538674214	0.8203398315662157	0.9938340169443585	0.09857238401657052	0.5273230433101331	0.07660985064457518	0.12023719746584505	0.6275187123522283	0.542855270827012	0.16507999957777875	0.8078311347703281	0.9669448755910932	0.1608916735199672	0.60189467135768	0.9785109217249869	0.10943372714849343	0.6826387829264566	0.9893125355025751	0.18561021345239653	0.8497469044822764	1.0165314031938824	0.2993062658959601	0.42703317530546164	-0.42806420345818885	0.32623612910125793	0.31733417817882614	-0.6798800996569232	0.286127918670261	0.27233492345801374	-0.5148327885941544	0.44701432421164655	0.39431560498145796	-0.31956045920916815	0.4035622914699357	0.34585318812295973	-0.054323454012070255	0.21895734038147308	0.275276810264322	-0.20284555791277295	0.16569976828734062	0.27098151778782764	-0.2989455467519482	0.1569438613782434	0.2741794709344633	-0.3000368931128663	0.13086941723372178	0.2974133286616837	-0.23167868777840628	0.14290062059659678	0.4736425188711482	-0.41372271675539907	-0.08940520959056432	0.4976403293032542	-0.2787093118673246	0.02814210780407684	0.2756613294274366	-0.34778743372327114	0.10859975353387322	0.21682016108541807	-0.41132540234549697	0.11049340337729929	0.2035860335140222	-0.4145758046801748	0.10353715118904513	0.2333971658511023	-0.3546805763701826
367	7.34	0.33554389793297207	0.48198562470993295	0.12293120615990934	0.33270573608052884	0.5422664592549065	0.512231547775414	0.3524969851206152	0.712582055758072	0.9307045594358927	0.3129489150571923	0.6141407046942378	0.9932022138646553	0.3793204914171683	0.5996153624405667	0.9885790289501744	0.38195706290868686	0.8203969995588078	0.9938435089458275	0.09875082818688048	0.5273675012964355	0.07849749487406411	0.11996394610949464	0.6268624380808961	0.5398072715293154	0.16509872900275543	0.8078553561046521	0.9668870420940893	0.16063325641145762	0.6019153194477219	0.9786588586418438	0.11123822212001114	0.6882150075898417	0.9907811967156872	0.1857927024102266	0.8554472838833012	1.0166069875308112	0.29650261438436204	0.4238067023465976	-0.4252389039672075	0.3240399311098127	0.30918618456078856	-0.6758333000317497	0.2855997375700919	0.2673241470300801	-0.5096696712974809	0.4466441262157713	0.39349110330458703	-0.3219285374721755	0.40997676597783705	0.34671099198498784	-0.05366833989827626	0.22352633944084715	0.2633785097029237	-0.1946554826321903	0.1603654104551289	0.2637366116490268	-0.29261788569437497	0.16088653198689012	0.2721330947030787	-0.29450556368999264	0.14655090673648768	0.28358463942375073	-0.23169973537088867	0.1388347040694387	0.4778737725158027	-0.41444332699034836	-0.0813129594489386	0.4937529040128122	-0.2620325055142675	0.03911191557994102	0.28010309791184407	-0.315381907731972	0.1144941128666897	0.22216322374830708	-0.38271394942718084	0.12018090159075875	0.21148691856203614	-0.37717594659144094	0.12436007279134294	0.23968004270067977	-0.31152072847980405
368	7.36	0.33682981253869376	0.4863989386157072	0.12484914459979378	0.33364478177423484	0.5442504104984452	0.5088902419224848	0.35276322285466705	0.7124412319097648	0.9306471889877362	0.31236485369836614	0.6168993931117545	0.9927854732290822	0.37964942490611986	0.5995717264088131	0.9886213523623896	0.38273426139876343	0.82074660082404	0.9937676709023462	0.09971691924191839	0.5298908717112536	0.08586283732315764	0.11962877048755281	0.6265825462833515	0.538367539162008	0.16509750212965218	0.8079524593404465	0.9668366273565315	0.16034615798445997	0.602037498668998	0.9787167623262794	0.11251781214461425	0.6920958228681136	0.9924217965139935	0.18597313825010842	0.859096688938987	1.0169153276583502	0.29214665355425923	0.4157231266592228	-0.42063089039541957	0.32148988684738017	0.29079214693772415	-0.6696125193470456	0.2846771955501442	0.2671644575653086	-0.5035098737694312	0.44611400001345847	0.39498480677994796	-0.3233491232869859	0.41614474985442146	0.3486490931528797	-0.05380882829310385	0.22539589808923918	0.2667589165474842	-0.1815230479029378	0.1573431828946431	0.2586871428508502	-0.28677027284714834	0.15567468297383424	0.2648801460851739	-0.2842401783897647	0.1543243728961233	0.27372940461626244	-0.23085539133076374	0.13470999771948294	0.4704266806405574	-0.4130818768855613	-0.07228719656904643	0.48577322186122707	-0.24705370467882803	0.05074100081042181	0.28197598738511737	-0.2859129925107965	0.12365900969478182	0.23448021270997238	-0.3503173994431537	0.13259896373825894	0.22522431872125495	-0.34026555353927307	0.13509474442789338	0.2414713014096312	-0.2781259625870091
369	7.38	0.3402114939868242	0.49000507340143207	0.12745580763645944	0.33491996779292654	0.5449243534620896	0.5073856853613901	0.3540357341949196	0.7127431062130143	0.9307646583984068	0.31148965043308763	0.6149768631010265	0.9915993829217115	0.38086304290423845	0.59946299710953	0.9886564525324224	0.38252162190837335	0.8217773997927911	0.9938494652708303	0.1015097947452509	0.533694681696937	0.09734769642360429	0.11956215795672874	0.6268241881501174	0.5394659592744324	0.16504526774563733	0.8083372665554278	0.9668407694358413	0.16030580407207567	0.60232137850795	0.9785646850818435	0.11294932839970541	0.6931737039471184	0.9926864007037312	0.1861545939237118	0.8597640580075196	1.0171966973237951	0.28609040274370834	0.40457948325988774	-0.41478420942440697	0.3183875765417411	0.2605931171660051	-0.6613802611701485	0.28233713567494745	0.26708537061798754	-0.49758244299508025	0.44557569611402414	0.39863748005299293	-0.32385428734265814	0.42270284489180465	0.35847222725207245	-0.05384849216538467	0.22769981103960052	0.28209478214723666	-0.16630825884728556	0.15663046201039482	0.25110652505934616	-0.2773089180742352	0.14461733059940912	0.2567963233274225	-0.2672941875617632	0.1521828655960098	0.2685992975756583	-0.22134124318226495	0.13096185643350605	0.45927144103193085	-0.4074935857139165	-0.06378418616355214	0.476779387439245	-0.23179313732742568	0.05914340880774173	0.2803143899784933	-0.2547231046073003	0.1360441802440454	0.24413751247983373	-0.31590317011504093	0.14530377770667657	0.2349887240547131	-0.3031547656511987	0.13844342710717544	0.24109703461783644	-0.24551884978231234
370	7.4	0.34358081462359324	0.4952973076260513	0.13085484791762916	0.335621827112801	0.5433831721320013	0.5077295110719455	0.35600145760766033	0.713450986836532	0.9310532600410867	0.3113642257635484	0.6134474476824894	0.9907856272900062	0.38255046578721463	0.59933397712189	0.9886745403131726	0.3821892653800802	0.8217926662743451	0.99412673423463	0.10373936116384165	0.5380038948781866	0.11156651795590936	0.11987244054189329	0.6274304475959639	0.5414813650322934	0.16499375762679777	0.8088219439088165	0.9668716622806708	0.160552455559934	0.6025111166915106	0.9783844333882858	0.11302509034334332	0.6929951805011025	0.991539159190896	0.18628034569851531	0.8587633863942759	1.0171327634608232	0.2802605671312178	0.3924755766310752	-0.40875967562697113	0.3152462615098588	0.22497824861174331	-0.6508634317692013	0.2784718066058222	0.260992257816836	-0.49123678360552747	0.44538356631151677	0.4000213810840878	-0.32388764407832693	0.4320817597834472	0.3786503654695605	-0.05345155837731032	0.23319254458052702	0.299404260258316	-0.15050812727053134	0.16025774124328598	0.24163041139225153	-0.2591413731449398	0.13632063690768068	0.2504865506115365	-0.24361170622238837	0.1490006375145412	0.27026255276062977	-0.19744856746821465	0.12578750262583446	0.44903947603132816	-0.39823028026415175	-0.05545242164661557	0.4721133908287293	-0.21488274513446987	0.06493890493394905	0.2786224880384192	-0.22028058371211273	0.1461511920354888	0.2460281260576959	-0.2785422082733955	0.15539145978047547	0.23262170095298837	-0.2628501152334168	0.1428144486343177	0.23949111656062255	-0.20889037388276563
